<svg width="184" height="33" viewBox="0 0 184 33" fill="none" xmlns="http://www.w3.org/2000/svg">
<path d="M153.2 10.96H154.384V15.808H154.4C154.507 15.6267 154.645 15.4507 154.816 15.28C154.987 15.1093 155.189 14.9547 155.424 14.816C155.659 14.6773 155.92 14.5653 156.208 14.48C156.496 14.3947 156.805 14.352 157.136 14.352C157.712 14.352 158.224 14.4533 158.672 14.656C159.12 14.848 159.499 15.1147 159.808 15.456C160.128 15.7973 160.368 16.208 160.528 16.688C160.688 17.1573 160.768 17.6693 160.768 18.224C160.768 18.7787 160.677 19.296 160.496 19.776C160.325 20.256 160.08 20.672 159.76 21.024C159.44 21.376 159.056 21.6533 158.608 21.856C158.171 22.0587 157.691 22.16 157.168 22.16C156.613 22.16 156.08 22.048 155.568 21.824C155.067 21.5893 154.672 21.216 154.384 20.704H154.352V22H153.2V10.96ZM156.912 21.12C157.328 21.12 157.696 21.0453 158.016 20.896C158.347 20.7467 158.624 20.544 158.848 20.288C159.083 20.032 159.259 19.728 159.376 19.376C159.493 19.024 159.552 18.6453 159.552 18.24C159.552 17.8347 159.493 17.456 159.376 17.104C159.259 16.752 159.088 16.448 158.864 16.192C158.651 15.9253 158.379 15.7173 158.048 15.568C157.728 15.4187 157.36 15.344 156.944 15.344C156.571 15.344 156.224 15.4187 155.904 15.568C155.584 15.7173 155.307 15.9253 155.072 16.192C154.848 16.448 154.667 16.752 154.528 17.104C154.4 17.456 154.336 17.8347 154.336 18.24C154.336 18.6453 154.389 19.024 154.496 19.376C154.613 19.728 154.779 20.032 154.992 20.288C155.216 20.544 155.488 20.7467 155.808 20.896C156.128 21.0453 156.496 21.12 156.912 21.12ZM162.751 10.96H163.935V22H162.751V10.96ZM169.801 22.16C169.257 22.16 168.745 22.0693 168.265 21.888C167.796 21.696 167.385 21.4293 167.033 21.088C166.681 20.736 166.404 20.3253 166.201 19.856C165.998 19.376 165.897 18.848 165.897 18.272C165.897 17.696 165.998 17.168 166.201 16.688C166.404 16.208 166.681 15.7973 167.033 15.456C167.385 15.104 167.796 14.832 168.265 14.64C168.745 14.448 169.257 14.352 169.801 14.352C170.345 14.352 170.857 14.448 171.337 14.64C171.817 14.832 172.233 15.104 172.585 15.456C172.937 15.7973 173.214 16.208 173.417 16.688C173.62 17.168 173.721 17.696 173.721 18.272C173.721 18.848 173.62 19.376 173.417 19.856C173.214 20.3253 172.937 20.736 172.585 21.088C172.233 21.4293 171.817 21.696 171.337 21.888C170.857 22.0693 170.345 22.16 169.801 22.16ZM169.801 21.12C170.217 21.12 170.59 21.0453 170.921 20.896C171.262 20.7467 171.545 20.544 171.769 20.288C172.004 20.0213 172.185 19.712 172.313 19.36C172.441 19.008 172.505 18.6347 172.505 18.24C172.505 17.8347 172.441 17.4613 172.313 17.12C172.185 16.768 172.004 16.464 171.769 16.208C171.545 15.952 171.262 15.7493 170.921 15.6C170.59 15.4507 170.217 15.376 169.801 15.376C169.385 15.376 169.012 15.4507 168.681 15.6C168.35 15.7493 168.068 15.952 167.833 16.208C167.598 16.464 167.417 16.768 167.289 17.12C167.172 17.4613 167.113 17.8347 167.113 18.24C167.113 18.6347 167.172 19.008 167.289 19.36C167.417 19.712 167.598 20.0213 167.833 20.288C168.068 20.544 168.35 20.7467 168.681 20.896C169.012 21.0453 169.385 21.12 169.801 21.12ZM181.441 20.528C181.163 20.976 180.795 21.328 180.337 21.584C179.889 21.8293 179.345 21.952 178.705 21.952C178.214 21.952 177.745 21.872 177.297 21.712C176.859 21.552 176.475 21.312 176.145 20.992C175.825 20.672 175.569 20.2773 175.377 19.808C175.185 19.328 175.089 18.7787 175.089 18.16C175.089 17.5733 175.185 17.0453 175.377 16.576C175.569 16.1067 175.825 15.7067 176.145 15.376C176.475 15.0453 176.854 14.7947 177.281 14.624C177.718 14.4427 178.182 14.352 178.673 14.352C179.366 14.352 179.942 14.496 180.401 14.784C180.87 15.0613 181.222 15.3973 181.457 15.792H181.489L181.473 14.496H182.657V20.4C182.657 21.2427 182.598 21.9093 182.481 22.4C182.363 22.8907 182.182 23.3013 181.937 23.632C181.819 23.8027 181.67 23.9787 181.489 24.16C181.307 24.3413 181.083 24.5067 180.817 24.656C180.561 24.8053 180.251 24.928 179.889 25.024C179.537 25.12 179.121 25.168 178.641 25.168C178.171 25.168 177.739 25.1093 177.345 24.992C176.961 24.8853 176.63 24.7627 176.353 24.624C176.075 24.496 175.851 24.368 175.681 24.24C175.521 24.1227 175.425 24.0533 175.393 24.032L175.985 23.184C176.113 23.28 176.267 23.3813 176.449 23.488C176.641 23.6053 176.854 23.712 177.089 23.808C177.323 23.9147 177.579 24 177.857 24.064C178.134 24.128 178.417 24.16 178.705 24.16C179.217 24.16 179.649 24.08 180.001 23.92C180.363 23.76 180.651 23.536 180.865 23.248C181.078 22.9707 181.233 22.6347 181.329 22.24C181.425 21.8453 181.473 21.4133 181.473 20.944V20.528H181.441ZM178.913 20.96C179.339 20.96 179.713 20.8907 180.033 20.752C180.363 20.6027 180.635 20.4 180.849 20.144C181.073 19.888 181.238 19.5893 181.345 19.248C181.462 18.9067 181.521 18.5387 181.521 18.144C181.521 17.28 181.281 16.6027 180.801 16.112C180.331 15.6107 179.691 15.36 178.881 15.36C178.454 15.36 178.081 15.4347 177.761 15.584C177.441 15.7227 177.174 15.92 176.961 16.176C176.747 16.4213 176.582 16.7147 176.465 17.056C176.358 17.3973 176.305 17.76 176.305 18.144C176.305 18.5387 176.358 18.9067 176.465 19.248C176.582 19.5893 176.747 19.888 176.961 20.144C177.185 20.4 177.457 20.6027 177.777 20.752C178.107 20.8907 178.486 20.96 178.913 20.96Z" fill="#282829"/>
<line x1="140.5" y1="9" x2="140.5" y2="24" stroke="black"/>
<g clip-path="url(#clip0_417_46447)">
<path d="M51.4186 11.3016L49.8888 12.925C48.8273 11.8948 47.7034 11.3016 46.1737 11.3016C43.52 11.3016 41.522 13.3933 41.522 16.3279C41.522 19.2626 43.52 21.3543 46.1737 21.3543C47.6098 21.3543 48.9834 20.7611 49.9825 19.7309L51.4186 21.3543C50.1698 22.7904 48.3903 23.5396 46.2986 23.5396C41.9278 23.5396 39.0869 20.4177 39.0869 16.3279C39.0869 12.1445 41.9278 9.02257 46.2986 9.02257C48.2654 8.99135 50.1386 9.83427 51.4186 11.3016Z" fill="#333357"/>
<path d="M68.4956 16.3278C68.4956 20.4176 65.3737 23.5395 61.1903 23.5395C56.9132 23.5395 53.7913 20.4176 53.7913 16.3278C53.7913 12.1444 56.9132 9.02246 61.1903 9.02246C65.3737 9.02246 68.4956 12.1444 68.4956 16.3278ZM56.2576 16.3278C56.2576 19.2625 58.3493 21.3542 61.1903 21.3542C63.9376 21.3542 66.0293 19.2625 66.0293 16.3278C66.0293 13.3932 63.9376 11.3015 61.1903 11.3015C58.3493 11.3015 56.2576 13.3932 56.2576 16.3278Z" fill="#333357"/>
<path d="M78.7669 23.2587H75.8947L70.0254 9.39722H72.6791L77.3308 20.886L81.9825 9.39722H84.5425L78.7669 23.2587Z" fill="#333357"/>
<path d="M99.5278 16.2342V17.1708H88.601C88.882 20.0118 90.88 21.4479 93.2527 21.4479C94.8449 21.4791 96.4059 20.8859 97.6235 19.8244L98.8722 21.4479C97.1552 23.0713 95.2508 23.5708 93.1591 23.5708C88.9756 23.5708 86.041 20.7298 86.041 16.3591C86.041 12.082 88.9756 9.05371 92.9717 9.05371C96.7805 9.02249 99.5278 12.0508 99.5278 16.2342ZM88.6322 15.1727H97.1864C96.9054 12.8 95.282 11.1766 93.003 11.1766C90.5366 11.2079 89.0069 12.8 88.6322 15.1727Z" fill="#333357"/>
<path d="M117.385 16.3278C117.385 20.4176 114.263 23.5395 110.08 23.5395C105.803 23.5395 102.681 20.4176 102.681 16.3278C102.681 12.1444 105.803 9.02246 110.08 9.02246C114.232 9.02246 117.385 12.1444 117.385 16.3278ZM105.147 16.3278C105.147 19.2625 107.239 21.3542 110.08 21.3542C112.827 21.3542 114.919 19.2625 114.919 16.3278C114.919 13.3932 112.827 11.3015 110.08 11.3015C107.208 11.3015 105.147 13.3932 105.147 16.3278Z" fill="#333357"/>
<path d="M27.5044 4.65171C24.8195 1.99805 21.3229 0.374634 17.5454 0C17.2644 0 17.0458 0.249756 17.0458 0.561951C17.0458 0.686829 17.0771 0.780488 17.1707 0.874146L23.04 6.64976C23.04 6.74341 23.04 6.74341 22.9463 6.74341C21.3229 5.55707 19.4185 4.83902 17.4517 4.65171C17.2644 4.62049 17.1083 4.74537 17.0771 4.93268C17.0771 5.02634 17.1083 5.12 17.1707 5.21366L21.1668 9.20976C21.1668 9.20976 21.1668 9.30341 21.0732 9.20976C19.9805 8.52293 18.7629 8.08585 17.4517 7.96098C17.2644 7.96098 17.1707 8.14829 17.2644 8.33561L24.0078 15.079C24.1951 15.2663 24.4761 15.079 24.3824 14.8917C24.2888 13.6117 23.8517 12.3629 23.1336 11.2702C23.04 11.2702 23.1336 11.1766 23.1336 11.2702L27.0361 15.079C27.2234 15.2663 27.598 15.079 27.598 14.798C27.3795 12.8 26.6614 10.8644 25.5063 9.20976C25.4127 9.20976 25.5063 9.1161 25.5063 9.20976L31.4068 14.9854C31.5629 15.1727 31.8127 15.2039 32 15.079C32.1561 14.9854 32.2185 14.798 32.1561 14.6107C31.8127 10.8332 30.158 7.30537 27.5044 4.65171Z" fill="#00ADFF"/>
<path d="M4.65171 4.65171C7.3678 2.02927 10.8644 0.374634 14.6107 0C14.8917 0 15.1102 0.187317 15.1415 0.468293C15.1415 0.593171 15.1102 0.749268 14.9854 0.842927L9.20976 6.64976C9.1161 6.74341 9.20976 6.74341 9.20976 6.74341C10.8644 5.55707 12.8 4.83902 14.798 4.65171C15.079 4.65171 15.2663 5.02634 15.079 5.21366L11.1141 9.20976C11.0205 9.20976 11.1141 9.30341 11.1141 9.20976C12.2068 8.52293 13.4244 8.11707 14.7356 7.96098C14.9229 7.96098 15.1102 8.14829 14.9229 8.33561L8.14829 15.079C7.96098 15.2663 7.77366 15.079 7.77366 14.8917C7.89854 13.6117 8.36683 12.3629 9.1161 11.2702C9.1161 11.2702 9.02244 11.1766 9.02244 11.2702L5.21366 15.079C4.93268 15.2663 4.55805 15.079 4.65171 14.798C4.83902 12.7688 5.55707 10.8332 6.74341 9.20976C6.74341 9.20976 6.64976 9.1161 6.64976 9.20976L0.842927 14.9854C0.468293 15.36 0 15.079 0 14.6107C0.374634 10.8644 2.02927 7.3678 4.65171 4.65171Z" fill="#F05245"/>
<path d="M4.65171 27.7229C7.30537 30.4077 10.8332 32.0624 14.6107 32.3746C14.8605 32.4058 15.079 32.2497 15.1102 31.9999C15.1415 31.8438 15.079 31.719 14.9854 31.5941L9.20976 25.7248C9.1161 25.7248 9.20976 25.6312 9.20976 25.7248C10.8644 26.9112 12.8 27.6292 14.798 27.7853C15.079 27.7853 15.2663 27.4107 15.079 27.2233L11.1141 23.2585C11.0205 23.1648 11.1141 23.1648 11.1141 23.1648C12.1756 23.8829 13.4244 24.3512 14.7044 24.476C14.8917 24.476 15.079 24.1951 14.8917 24.1014L8.14829 17.358C7.96098 17.1707 7.77366 17.2643 7.77366 17.5453C7.89854 18.8253 8.36683 20.0741 9.1161 21.1668C9.1161 21.1668 9.02244 21.2604 9.02244 21.1668L5.21366 17.358C4.93268 17.1707 4.55805 17.2643 4.65171 17.639C4.83902 19.637 5.55707 21.5414 6.74341 23.1336C6.74341 23.196 6.71219 23.2273 6.64976 23.2273L0.842927 17.358C0.62439 17.1707 0.280976 17.2331 0.124878 17.4516C0.062439 17.5453 0.0312195 17.639 0 17.7638C0.343415 21.5102 1.99805 25.038 4.65171 27.7229Z" fill="#1CEBCF"/>
<path d="M27.5044 27.7229C24.8507 30.439 21.3229 32.0936 17.5454 32.3746C17.1707 32.4683 16.8897 31.9063 17.1707 31.6254L23.04 25.7561C23.04 25.7561 23.04 25.6624 22.9463 25.7561C21.3229 26.9424 19.4185 27.6605 17.4517 27.8478C17.2644 27.879 17.1083 27.7229 17.0771 27.5356C17.0771 27.4419 17.1083 27.3483 17.1707 27.2546L21.1668 23.2585C21.1668 23.1649 21.1668 23.1649 21.0732 23.1649C20.0117 23.9141 18.7629 24.3824 17.4829 24.4761C17.3268 24.4449 17.2332 24.32 17.2644 24.1951C17.2644 24.1639 17.2644 24.1327 17.2956 24.1015L24.039 17.358C24.2263 17.1707 24.5073 17.2644 24.4136 17.5454C24.32 18.8254 23.8829 20.0741 23.1649 21.1668C23.0712 21.1668 23.1649 21.2605 23.1649 21.1668L27.0673 17.358C27.1922 17.2332 27.4107 17.2332 27.5356 17.358C27.598 17.4205 27.6293 17.5454 27.6293 17.639C27.4107 19.6058 26.6927 21.5102 25.5376 23.1336C25.4439 23.2273 25.5376 23.2273 25.5376 23.2273L31.4068 17.358C31.6878 17.0771 32.2497 17.358 32.1561 17.7327C31.8439 21.5102 30.1893 25.038 27.5044 27.7229Z" fill="#FFE300"/>
<path opacity="0.87" d="M122.006 9.95892V13.4243H121.413V9.95892H120.32V9.39697H123.13V9.95892H122.006Z" fill="#333357"/>
<path opacity="0.87" d="M127.282 13.4243V10.7394L126.345 12.6751H125.908L124.972 10.7394V13.4243H124.347V9.42822H124.972L126.127 11.9258L127.282 9.42822H127.875V13.4243H127.282Z" fill="#333357"/>
</g>
<defs>
<clipPath id="clip0_417_46447">
<rect width="128" height="32.4683" fill="white"/>
</clipPath>
</defs>
</svg>
