<?xml version="1.0" encoding="UTF-8"?><svg width="182" height="28" xmlns="http://www.w3.org/2000/svg"><path d="M0 25.626v-4.438h4.563v4.438H0zm0-7.125v-4.438h11.5v4.438H0zm0-7.063v-4.5h18.625v4.5H0zm0-7V0h25.563v4.438H0zm37.25 21.188V6.938h13.938v4.188h-9.375v2.813h6.688v4.125h-6.688v7.563H37.25v-.001zm15.688 0V6.938h8.375c2.187 0 3.896.5 5.125 1.5 1.25 1 1.875 2.542 1.875 4.625 0 1.354-.281 2.458-.844 3.313s-1.427 1.563-2.594 2.125l3.75 7.125H63.25l-3.063-6.5h-2.688v6.5h-4.563.002zM57.5 15.251h3.688c.875 0 1.49-.177 1.844-.531.354-.354.531-.906.531-1.656 0-.667-.177-1.188-.531-1.563-.375-.375-.99-.563-1.844-.563H57.5v4.313zm13.438 10.375V6.938h13.5v4.188h-8.75v2.625h5.938v4.188h-5.938v3.5h9.438v4.188H70.938v-.001zm15.125-2.375l2.5-3.438c.667.542 1.5 1 2.5 1.375 1.02.375 1.958.563 2.813.563.959 0 1.646-.115 2.063-.344.417-.23.625-.615.625-1.156 0-.437-.24-.792-.719-1.063-.48-.292-1.427-.625-2.844-1-1.104-.23-2.02-.48-2.75-.75a7.744 7.744 0 01-1.969-1.063 3.973 3.973 0 01-1.25-1.625c-.27-.625-.406-1.396-.406-2.313 0-1.75.667-3.146 2-4.188 1.313-1.042 3.021-1.563 5.125-1.563 2.75 0 5.167.771 7.25 2.313l-2.563 3.563c-1.667-1.167-3.292-1.75-4.875-1.75-1.459 0-2.188.438-2.188 1.313 0 .437.208.77.625 1 .417.209 1.292.48 2.625.813 1.104.27 2.031.552 2.781.844a9 9 0 012.063 1.156 4.039 4.039 0 011.344 1.625c.292.646.438 1.396.438 2.25 0 2.042-.667 3.563-2 4.563-1.333 1-3.23 1.5-5.688 1.5-1.459 0-2.855-.23-4.188-.688-1.333-.48-2.438-1.125-3.313-1.938l.001.001zm17.75 2.375V6.938h13.438v4.188h-8.875v2.625h5.938v4.188h-5.938v3.5h9.5v4.188h-14.063v-.001zm16.25 0V6.938h4.313l7.063 10.25V6.938h4.563v18.688h-3.813l-7.563-10.688v10.688h-4.563zm19.375 0V6.938h4.688v18.688h-4.688zm7.812-8V6.938H152v10.688c0 1.25.281 2.23.844 2.938.563.709 1.365 1.063 2.406 1.063 1.02 0 1.823-.354 2.406-1.063.563-.709.844-1.688.844-2.938V6.938h4.75v10.688c0 1.375-.198 2.594-.594 3.656-.396 1.062-.959 1.927-1.688 2.594a7.913 7.913 0 01-2.531 1.5c-.959.333-2.021.5-3.188.5-2.459 0-4.407-.688-5.844-2.063-1.437-1.396-2.156-3.459-2.156-6.188l.001.001zm17.625 5.625l2.5-3.438c.667.542 1.5 1 2.5 1.375 1.02.375 1.958.563 2.813.563.959 0 1.646-.115 2.063-.344.417-.23.625-.615.625-1.156 0-.437-.23-.802-.688-1.094-.48-.27-1.438-.594-2.875-.969-1.104-.23-2.02-.48-2.75-.75a7.744 7.744 0 01-1.969-1.063 3.973 3.973 0 01-1.25-1.625c-.27-.625-.406-1.396-.406-2.313 0-1.75.667-3.146 2-4.188 1.313-1.042 3.021-1.563 5.125-1.563 2.75 0 5.167.771 7.25 2.313l-2.563 3.563c-1.667-1.167-3.292-1.75-4.875-1.75-1.459 0-2.188.438-2.188 1.313 0 .437.208.77.625 1 .417.209 1.292.48 2.625.813 1.104.27 2.031.552 2.781.844a9 9 0 012.063 1.156 4.039 4.039 0 011.344 1.625c.292.646.438 1.396.438 2.25 0 2.02-.656 3.542-1.969 4.563-1.313 1-3.156 1.5-5.531 1.5-1.542 0-2.99-.23-4.344-.688-1.333-.459-2.448-1.105-3.344-1.938v.001z" fill="#002967" fill-rule="nonzero"/></svg>