<svg viewBox="0 0 1352 559" xmlns="http://www.w3.org/2000/svg"><path d="M1155.8-200.96c-116.36-115.69-265.41-180.68-418.38-194.98-18.304-1.3-28.763 20.798-15.689 33.797l244.49 243.08c1.307 1.3 0 3.9-2.615 2.6-70.602-50.696-150.36-79.293-232.72-87.093-13.074-1.3-19.611 14.299-10.459 23.398l167.35 166.39c1.307 1.3 0 3.9-2.615 2.6-45.761-31.197-98.058-49.396-151.66-54.596-9.152-1.3-14.382 10.399-7.844 15.599l283.72 282.08c6.53 6.499 16.99 1.3 15.69-7.8-5.23-53.295-23.54-105.29-54.917-150.79-1.307-1.3 1.308-3.899 2.615-2.599l160.81 159.89c9.15 9.099 24.84 1.3 23.54-10.399-6.54-80.594-35.3-161.19-86.29-230.08-1.31-1.3 1.3-3.9 2.61-2.6l244.49 243.08c13.08 13 35.3 2.6 33.99-16.899-14.38-150.79-79.75-298.98-196.11-414.67z" fill="#00ADFF"/><path d="M196.17-200.96c116.36-115.69 265.41-180.68 418.38-194.98 18.305-1.3 28.764 20.798 15.69 33.797l-244.49 243.08c-1.307 1.3 0 3.9 2.615 2.6 70.601-50.696 150.36-79.293 232.72-87.093 13.074-1.3 19.611 14.299 10.459 23.398l-167.35 166.39c-1.307 1.3 0 3.9 2.615 2.6 45.76-31.197 98.058-49.396 151.66-54.596 9.152-1.3 14.382 10.399 7.844 15.599l-283.71 283.38c-6.538 6.499-16.997 1.3-15.69-7.8 5.23-53.295 23.534-105.29 54.913-150.79 1.307-1.3-1.308-3.9-2.615-2.6l-160.82 159.89c-9.152 9.099-24.841 1.3-23.534-10.399 7.845-81.894 36.608-162.49 87.599-231.38 1.307-1.3-1.308-3.9-2.615-2.6l-245.8 243.08c-13.074 13-35.301 2.6-33.993-16.899 14.382-150.79 79.754-298.98 196.12-414.67z" fill="#F05245"/><path d="M196.17 760.96c116.36 115.69 265.41 180.69 418.38 194.98 18.305 1.299 28.764-20.799 15.69-33.798l-244.49-243.08c-1.307-1.3 0-3.9 2.615-2.6 70.601 50.696 150.36 79.294 232.72 87.093 13.074 1.3 19.611-14.299 10.459-23.398l-167.35-166.39c-1.307-1.299 0-3.899 2.615-2.599 45.76 31.197 98.058 49.396 151.66 54.595 9.152 1.3 14.382-10.399 7.844-15.598l-283.71-283.38c-6.538-6.499-16.997-1.299-15.69 7.8 5.23 53.296 23.534 105.29 54.913 150.79 1.307 1.3-1.308 3.899-2.615 2.599l-160.82-159.89c-9.152-9.099-24.841-1.3-23.534 10.4 7.845 81.893 36.608 162.49 87.599 231.38 1.307 1.3-1.308 3.899-2.615 2.6l-245.8-243.08c-13.074-12.999-35.301-2.6-33.993 16.899 14.382 150.79 79.754 298.98 196.12 414.67z" fill="#1CEBCF"/><path d="M1155.8 760.96c-116.36 115.69-265.41 180.68-418.38 194.98-18.304 1.3-28.763-20.799-15.689-33.797l244.49-243.08c1.307-1.3 0-3.899-2.615-2.6-70.602 50.696-150.36 79.294-232.72 87.093-13.074 1.3-19.611-14.298-10.459-23.398l167.35-166.39c1.307-1.3 0-3.9-2.615-2.6-45.761 31.198-98.058 49.396-151.66 54.596-9.152 1.299-14.382-10.4-7.844-15.599l283.72-282.08c6.53-6.5 16.99-1.3 15.69 7.799-5.23 53.296-23.54 105.29-54.917 150.79-1.307 1.3 1.308 3.9 2.615 2.6l160.81-159.89c9.15-9.1 24.84-1.3 23.54 10.399-6.54 80.593-35.3 161.19-86.29 231.38-1.31 1.3 1.3 3.9 2.61 2.6l244.49-243.08c13.08-12.999 35.3-2.6 33.99 16.898-14.38 149.49-79.75 297.68-196.11 413.37z" fill="#FFE300"/></svg>